<svg xmlns="http://www.w3.org/2000/svg" xmlns:svg="http://www.w3.org/2000/svg" xmlns:xlink="http://www.w3.org/1999/xlink" version="1.0" height="770.0000000000002pt" width="1650pt" viewBox="245.0000000000001 26.999999999999858 1658 776.0000000000002" ><defs><style type="text/css">
            @font-face {
                font-family: 'lt_regular';
                src: url('https://app.creately.com/diagram/assets/fonts/lato/lt-regular-webfont.woff2') format('woff2'),
                    url('https://app.creately.com/diagram/assets/fonts/lato/lt-regular-webfont.woff') format('woff');
                font-weight: normal;
                font-style: normal;
            }
            @font-face {
                font-family: 'noto_regular';
                src: url('https://app.creately.com/diagram/assets/fonts/noto/noto-regular.woff') format('woff'),
                     url('https://app.creately.com/diagram/assets/fonts/noto/noto-regular.woff2') format('woff2');
                font-weight: normal;
                font-style: normal;
            }
        p {
            margin: 0;
        }
        </style></defs><defs><style>
            span{ display: inline-block; }
        </style></defs><g id="OJ84NqaZYm6"><g transform="translate(250.0000000000001 149.99999999999997)"><rect x="0" y="0" width="99.99999999999997" height="46.8" fill="rgb(129,40,33)" stroke="#812821" stroke-width="2" stroke-linecap="round" stroke-linejoin="round" stroke-dasharray="0 0"/><path d="M 49.999999999999986,46.8 L 49.999999999999986,650" fill="rgb(129,40,33)" stroke="#812821" stroke-width="2" stroke-linecap="round" stroke-linejoin="round" stroke-dasharray="3 3"/><rect x="0" y="0" width="99.99999999999997" height="650" fill="rgba(255,255,255,0.01)" stroke="rgba(255,255,255,0.01)" stroke-width="2" stroke-linecap="round" stroke-linejoin="round" stroke-dasharray="3 3"/></g><g transform="translate(280.3800000000001, 154.99999999999997) rotate(0, 19.62, 0)" width="39.24" height="36.8"><text text-decoration="none" x="0.620000000000001" fill="#fdf6f6" font-size="10pt" font-family="lt_regular"  y="14">Patron</text><text text-decoration="none" x="38.620000000000005" fill="#fdf6f6" font-size="10pt" font-family="lt_regular"  y="14"></text><text text-decoration="none" x="19.62" fill="#4b4b4b" font-size="10pt" font-family="noto_regular"  y="36"></text></g></g><g id="tmtYijE1FCB"><g transform="translate(450.00000000000006 150.00000000000003)"><rect x="0" y="0" width="99.99999999999999" height="46.8" fill="rgb(129,40,33)" stroke="#812821" stroke-width="2" stroke-linecap="round" stroke-linejoin="round" stroke-dasharray="0 0"/><path d="M 49.99999999999999,46.8 L 49.99999999999999,650.0000000000001" fill="rgb(129,40,33)" stroke="#812821" stroke-width="2" stroke-linecap="round" stroke-linejoin="round" stroke-dasharray="3 3"/><rect x="0" y="0" width="99.99999999999999" height="650.0000000000001" fill="rgba(255,255,255,0.01)" stroke="rgba(255,255,255,0.01)" stroke-width="2" stroke-linecap="round" stroke-linejoin="round" stroke-dasharray="3 3"/></g><g transform="translate(464.76, 155.00000000000003) rotate(0, 35.24, 0)" width="70.48" height="36.8"><text text-decoration="none" x="0.740000000000002" fill="#fdf6f6" font-size="10pt" font-family="lt_regular"  y="14">Registration</text><text text-decoration="none" x="69.74000000000001" fill="#fdf6f6" font-size="10pt" font-family="lt_regular"  y="14"></text><text text-decoration="none" x="35.24" fill="#4b4b4b" font-size="10pt" font-family="noto_regular"  y="36"></text></g></g><g id="vfUyirBLwIs"><g transform="translate(650 149.99999999999997)"><rect x="0" y="0" width="99.99999999999997" height="46.8" fill="rgb(129,40,33)" stroke="#812821" stroke-width="2" stroke-linecap="round" stroke-linejoin="round" stroke-dasharray="0 0"/><path d="M 49.999999999999986,46.8 L 49.999999999999986,650" fill="rgb(129,40,33)" stroke="#812821" stroke-width="2" stroke-linecap="round" stroke-linejoin="round" stroke-dasharray="3 3"/><rect x="0" y="0" width="99.99999999999997" height="650" fill="rgba(255,255,255,0.01)" stroke="rgba(255,255,255,0.01)" stroke-width="2" stroke-linecap="round" stroke-linejoin="round" stroke-dasharray="3 3"/></g><g transform="translate(684.02, 154.99999999999997) rotate(0, 15.98, 0)" width="31.96" height="36.8"><text text-decoration="none" x="0.4800000000000004" fill="#fdf6f6" font-size="10pt" font-family="lt_regular"  y="14">Login</text><text text-decoration="none" x="31.48" fill="#fdf6f6" font-size="10pt" font-family="lt_regular"  y="14"></text><text text-decoration="none" x="15.98" fill="#4b4b4b" font-size="10pt" font-family="noto_regular"  y="36"></text></g></g><g id="Iyip4yH1Izq"><g transform="translate(850 149.99999999999997)"><rect x="0" y="0" width="99.99999999999997" height="46.8" fill="rgb(129,40,33)" stroke="#812821" stroke-width="2" stroke-linecap="round" stroke-linejoin="round" stroke-dasharray="0 0"/><path d="M 49.999999999999986,46.8 L 49.999999999999986,649.9999999999999" fill="rgb(129,40,33)" stroke="#812821" stroke-width="2" stroke-linecap="round" stroke-linejoin="round" stroke-dasharray="3 3"/><rect x="0" y="0" width="99.99999999999997" height="649.9999999999999" fill="rgba(255,255,255,0.01)" stroke="rgba(255,255,255,0.01)" stroke-width="2" stroke-linecap="round" stroke-linejoin="round" stroke-dasharray="3 3"/></g><g transform="translate(871.76, 154.99999999999997) rotate(0, 28.24, 0)" width="56.48" height="36.8"><text text-decoration="none" x="0.7399999999999984" fill="#fdf6f6" font-size="10pt" font-family="lt_regular"  y="14">Password</text><text text-decoration="none" x="55.739999999999995" fill="#fdf6f6" font-size="10pt" font-family="lt_regular"  y="14"></text><text text-decoration="none" x="10.239999999999998" fill="#fdf6f6" font-size="10pt" font-family="lt_regular"  y="36">Reset</text><text text-decoration="none" x="46.239999999999995" fill="#4b4b4b" font-size="10pt" font-family="noto_regular"  y="36"></text></g></g><g id="R44fagVhG6q"><g transform="translate(1050 149.99999999999997)"><rect x="0" y="0" width="99.99999999999997" height="46.8" fill="rgb(129,40,33)" stroke="#812821" stroke-width="2" stroke-linecap="round" stroke-linejoin="round" stroke-dasharray="0 0"/><path d="M 49.999999999999986,46.8 L 49.999999999999986,649.9999999999999" fill="rgb(129,40,33)" stroke="#812821" stroke-width="2" stroke-linecap="round" stroke-linejoin="round" stroke-dasharray="3 3"/><rect x="0" y="0" width="99.99999999999997" height="649.9999999999999" fill="rgba(255,255,255,0.01)" stroke="rgba(255,255,255,0.01)" stroke-width="2" stroke-linecap="round" stroke-linejoin="round" stroke-dasharray="3 3"/></g><g transform="translate(1061.365, 154.99999999999997) rotate(0, 38.635, 0)" width="77.27" height="36.8"><text text-decoration="none" x="1.634999999999998" fill="#fdf6f6" font-size="10pt" font-family="lt_regular"  y="14">Meals&#160;</text><text text-decoration="none" x="38.635" fill="#fdf6f6" font-size="10pt" font-family="lt_regular"  y="14">Online</text><text text-decoration="none" x="75.63499999999999" fill="#fdf6f6" font-size="10pt" font-family="lt_regular"  y="14"></text><text text-decoration="none" x="38.635" fill="#4b4b4b" font-size="10pt" font-family="noto_regular"  y="36"></text></g></g><g id="qyPeCbYY0dW"><g transform="translate(1249.9999999999998 149.99999999999997)"><rect x="0" y="0" width="99.99999999999997" height="46.8" fill="rgb(129,40,33)" stroke="#812821" stroke-width="2" stroke-linecap="round" stroke-linejoin="round" stroke-dasharray="0 0"/><path d="M 49.999999999999986,46.8 L 49.999999999999986,649.9999999999999" fill="rgb(129,40,33)" stroke="#812821" stroke-width="2" stroke-linecap="round" stroke-linejoin="round" stroke-dasharray="3 3"/><rect x="0" y="0" width="99.99999999999997" height="649.9999999999999" fill="rgba(255,255,255,0.01)" stroke="rgba(255,255,255,0.01)" stroke-width="2" stroke-linecap="round" stroke-linejoin="round" stroke-dasharray="3 3"/></g><g transform="translate(1268.5549999999998, 154.99999999999997) rotate(0, 31.445, 0)" width="62.89" height="36.8"><text text-decoration="none" x="14.445" fill="#fdf6f6" font-size="10pt" font-family="lt_regular"  y="14">Order&#160;</text><text text-decoration="none" x="0.4450000000000003" fill="#fdf6f6" font-size="10pt" font-family="lt_regular"  y="36">Processing</text><text text-decoration="none" x="62.445" fill="#4b4b4b" font-size="10pt" font-family="noto_regular"  y="36"></text></g></g><g id="86EnVUzLVbi"><g transform="translate(1450 149.99999999999997)"><rect x="0" y="0" width="99.99999999999997" height="46.8" fill="rgb(129,40,33)" stroke="#812821" stroke-width="2" stroke-linecap="round" stroke-linejoin="round" stroke-dasharray="0 0"/><path d="M 49.999999999999986,46.8 L 49.999999999999986,649.9999999999999" fill="rgb(129,40,33)" stroke="#812821" stroke-width="2" stroke-linecap="round" stroke-linejoin="round" stroke-dasharray="3 3"/><rect x="0" y="0" width="99.99999999999997" height="649.9999999999999" fill="rgba(255,255,255,0.01)" stroke="rgba(255,255,255,0.01)" stroke-width="2" stroke-linecap="round" stroke-linejoin="round" stroke-dasharray="3 3"/></g><g transform="translate(1467.845, 154.99999999999997) rotate(0, 32.155, 0)" width="64.31" height="36.8"><text text-decoration="none" x="3.155000000000001" fill="#fdf6f6" font-size="10pt" font-family="lt_regular"  y="14">Save&#160;</text><text text-decoration="none" x="33.155" fill="#fdf6f6" font-size="10pt" font-family="lt_regular"  y="14">Meal&#160;</text><text text-decoration="none" x="0.15500000000000114" fill="#fdf6f6" font-size="10pt" font-family="lt_regular"  y="36">Preference</text><text text-decoration="none" x="64.155" fill="#4b4b4b" font-size="10pt" font-family="noto_regular"  y="36"></text></g></g><g id="hXXypIvxjkX"><g transform="translate(1600.0000000000002 149.99999999999997)"><rect x="0" y="0" width="99.99999999999997" height="46.8" fill="rgb(129,40,33)" stroke="#812821" stroke-width="2" stroke-linecap="round" stroke-linejoin="round" stroke-dasharray="0 0"/><path d="M 49.999999999999986,46.8 L 49.999999999999986,649.9999999999999" fill="rgb(129,40,33)" stroke="#812821" stroke-width="2" stroke-linecap="round" stroke-linejoin="round" stroke-dasharray="3 3"/><rect x="0" y="0" width="99.99999999999997" height="649.9999999999999" fill="rgba(255,255,255,0.01)" stroke="rgba(255,255,255,0.01)" stroke-width="2" stroke-linecap="round" stroke-linejoin="round" stroke-dasharray="3 3"/></g><g transform="translate(1624.1550000000002, 154.99999999999997) rotate(0, 25.845, 0)" width="51.69" height="36.8"><text text-decoration="none" x="8.344999999999999" fill="#fdf6f6" font-size="10pt" font-family="lt_regular"  y="14">Make&#160;</text><text text-decoration="none" x="43.345" fill="#fdf6f6" font-size="10pt" font-family="lt_regular"  y="14"></text><text text-decoration="none" x="0.34499999999999886" fill="#fdf6f6" font-size="10pt" font-family="lt_regular"  y="36">Payment</text><text text-decoration="none" x="51.345" fill="#4b4b4b" font-size="10pt" font-family="noto_regular"  y="36"></text></g></g><g id="PmYfdg86VvY"><g transform="translate(1800 149.99999999999997)"><rect x="0" y="0" width="99.99999999999997" height="46.8" fill="rgb(129,40,33)" stroke="#812821" stroke-width="2" stroke-linecap="round" stroke-linejoin="round" stroke-dasharray="0 0"/><path d="M 49.999999999999986,46.8 L 49.999999999999986,649.9999999999999" fill="rgb(129,40,33)" stroke="#812821" stroke-width="2" stroke-linecap="round" stroke-linejoin="round" stroke-dasharray="3 3"/><rect x="0" y="0" width="99.99999999999997" height="649.9999999999999" fill="rgba(255,255,255,0.01)" stroke="rgba(255,255,255,0.01)" stroke-width="2" stroke-linecap="round" stroke-linejoin="round" stroke-dasharray="3 3"/></g><g transform="translate(1811.54, 154.99999999999997) rotate(0, 38.46, 0)" width="76.92" height="36.8"><text text-decoration="none" x="12.96" fill="#fdf6f6" font-size="10pt" font-family="lt_regular"  y="14">Payment&#160;</text><text text-decoration="none" x="1.4600000000000009" fill="#fdf6f6" font-size="10pt" font-family="lt_regular"  y="36">Confirmation</text><text text-decoration="none" x="75.46000000000001" fill="#4b4b4b" font-size="10pt" font-family="noto_regular"  y="36"></text></g></g><g id="VfmvUgJq73O"><g transform="translate(749.9999999999998 29.999999999999943) rotate(-7.0167092985348775e-15)"><rect x="0" y="0" width="700.0000000000003" height="60.00000000000008" fill="rgba(255,255,255,0.01)" stroke="rgba(255,255,255,0.01)"/></g><g transform="translate(858.0550000000001, 39.9999999999999) rotate(0, 241.945, 0)" width="483.89" height="32.8"><text text-decoration="none" x="47.44499999999999" fill="#4b4b4b" font-weight="bold" font-size="18pt" font-family="lt_regular"  y="26">Cafeteria&#160;</text><text text-decoration="none" x="151.445" fill="#4b4b4b" font-weight="bold" font-size="18pt" font-family="lt_regular"  y="26">Ordering&#160;</text><text text-decoration="none" x="251.445" fill="#4b4b4b" font-weight="bold" font-size="18pt" font-family="lt_regular"  y="26">System&#160;</text><text text-decoration="none" x="334.445" fill="#4b4b4b" font-weight="bold" font-size="18pt" font-family="lt_regular"  y="26">Sequence&#160;</text><text text-decoration="none" x="197.445" fill="#4b4b4b" font-weight="bold" font-size="18pt" font-family="lt_regular"  y="59">Diagram</text><text text-decoration="none" x="286.445" fill="#4b4b4b" font-size="10pt" font-family="noto_regular"  y="59"></text></g></g><g id="la8gjfQrwGu"><g transform="translate(290.0000000000001 209.99999999999991)"><rect x="0" y="0" width="20" height="580.0000000000001" fill="rgb(53,98,96)" stroke="#356260" stroke-width="2" stroke-linecap="round" stroke-linejoin="round" stroke-dasharray="0 0"/></g></g><g id="NtdNN9fRzSV"><g transform="translate(490.00000000000006 210)"><rect x="0" y="0" width="20" height="100.00000000000001" fill="rgb(53,98,96)" stroke="#356260" stroke-width="2" stroke-linecap="round" stroke-linejoin="round" stroke-dasharray="0 0"/></g></g><g id="Ho3UpHWyMzG"><mask id="07b8c" x="296" y="206" width="208" height="28" maskUnits="userSpaceOnUse"><rect x="296" y="206" width="208" height="28" fill="white" /><rect x="320.5100000000001" y="209.7949999999999" width="158.98" height="20.41" fill="black" /></mask><g mask="url(#07b8c)"><path d="M 310,220 L 390.0000000000001,219.99999999999991 Q 390.0000000000002,219.99999999999991 400,220 Q 410,220 410.0000000000001,220 L 490,220" fill="none" stroke="#e6b02b" stroke-width="2" stroke-linecap="round" stroke-linejoin="round" stroke-dasharray="0 0"/><path d="M 490,220 L 481.30434782608694,214.25 L 481.30434782608694,225.75 Z" fill="rgb(230,176,43)" stroke="#e6b02b" stroke-width="2" stroke-linecap="round" stroke-linejoin="round"/></g><g transform="translate(323.5100000000001, 212.7949999999999)" width="152.98" height="14.41"><text text-decoration="none" x="0" fill="#1e1d1d" font-size="8pt" font-family="lt_regular"  y="17">checkUserIdDatabaseAbscence()</text><text text-decoration="none" x="156" fill="#4b4b4b" font-size="10pt" font-family="noto_regular"  y="17"></text></g></g><g id="Xes5LKE1Njr"><mask id="a092a" x="296" y="246" width="208" height="28" maskUnits="userSpaceOnUse"><rect x="296" y="246" width="208" height="28" fill="white" /><rect x="342.71500000000015" y="249.79499999999987" width="114.57" height="20.41" fill="black" /></mask><g mask="url(#a092a)"><path d="M 310,260 L 390.0000000000001,259.9999999999999 Q 390.0000000000003,259.9999999999999 400,260 Q 410,260 410.0000000000001,260 L 490,260" fill="none" stroke="#e6b02b" stroke-width="2" stroke-linecap="round" stroke-linejoin="round" stroke-dasharray="0 0"/><path d="M 490,260 L 481.30434782608694,254.25 L 481.30434782608694,265.75 Z" fill="rgb(230,176,43)" stroke="#e6b02b" stroke-width="2" stroke-linecap="round" stroke-linejoin="round"/></g><g transform="translate(345.71500000000015, 252.79499999999987)" width="108.57" height="14.41"><text text-decoration="none" x="0" fill="#1e1d1d" font-size="8pt" font-family="lt_regular"  y="17">checkCardTypeMatch()</text><text text-decoration="none" x="111" fill="#4b4b4b" font-size="10pt" font-family="noto_regular"  y="17"></text></g></g><g id="ePPalBm3chC"><mask id="db0f6" x="296" y="286" width="208" height="28" maskUnits="userSpaceOnUse"><rect x="296" y="286" width="208" height="28" fill="white" /><rect x="352.71500000000015" y="289.7949999999999" width="94.57" height="20.41" fill="black" /></mask><g mask="url(#db0f6)"><path d="M 490,300 L 410.0000000000001,300 Q 410,300 400,300 Q 390.0000000000003,299.9999999999999 390.0000000000001,299.9999999999999 L 310,300" fill="none" stroke="#e6b02b" stroke-width="2" stroke-linecap="round" stroke-linejoin="round" stroke-dasharray="0 0"/><path d="M 310,300 L 318.69565217391306,305.75 L 318.69565217391306,294.25 Z" fill="rgb(230,176,43)" stroke="#e6b02b" stroke-width="2" stroke-linecap="round" stroke-linejoin="round"/></g><g transform="translate(355.71500000000015, 292.7949999999999)" width="88.57" height="14.41"><text text-decoration="none" x="0" fill="#1e1d1d" font-size="8pt" font-family="lt_regular"  y="17">registrationStatus()</text><text text-decoration="none" x="92" fill="#4b4b4b" font-size="10pt" font-family="noto_regular"  y="17"></text></g></g><g id="T2DAjzxnS33"><g transform="translate(690 310)"><rect x="0" y="0" width="20" height="479.99999999999994" fill="rgb(53,98,96)" stroke="#356260" stroke-width="2" stroke-linecap="round" stroke-linejoin="round" stroke-dasharray="0 0"/></g></g><g id="O4wcdajCNmt"><mask id="fb8b3" x="296" y="326" width="408" height="28" maskUnits="userSpaceOnUse"><rect x="296" y="326" width="408" height="28" fill="white" />undefined<rect x="506.865" y="329.795" width="146.02" height="20.41" fill="black" /></mask><g mask="url(#fb8b3)"><path d="M 310,340 L 490.00000000000006,339.9999999999999 Q 490.00000000000017,339.9999999999999 500,340 Q 510,340 510.00000000000006,340 L 690,340" fill="none" stroke="#e6b02b" stroke-width="2" stroke-linecap="round" stroke-linejoin="round" stroke-dasharray="0 0"/><path d="M 690,340 L 681.304347826087,334.25 L 681.304347826087,345.75 Z" fill="rgb(230,176,43)" stroke="#e6b02b" stroke-width="2" stroke-linecap="round" stroke-linejoin="round"/></g>undefined<g transform="translate(509.865, 332.795)" width="140.02" height="14.41"><text text-decoration="none" x="0" fill="#1e1d1d" font-size="8pt" font-family="lt_regular"  y="17">databaseValidateIdPassword()</text><text text-decoration="none" x="143" fill="#4b4b4b" font-size="10pt" font-family="noto_regular"  y="17"></text></g></g><g id="9TtwT6Ah32O"><g transform="translate(890 310.00000000000006)"><rect x="0" y="0" width="20" height="80" fill="rgb(53,98,96)" stroke="#356260" stroke-width="2" stroke-linecap="round" stroke-linejoin="round" stroke-dasharray="0 0"/></g></g><g id="AcZppaRn0IU"><mask id="4b96a" x="696" y="326" width="208" height="28" maskUnits="userSpaceOnUse"><rect x="696" y="326" width="208" height="28" fill="white" /><rect x="759.77" y="329.795" width="80.46" height="20.41" fill="black" /></mask><g mask="url(#4b96a)"><path d="M 710,340 L 800,340 Q 810,340.00000000000006 810,340.00000000000006 L 890,340" fill="none" stroke="#e6b02b" stroke-width="2" stroke-linecap="round" stroke-linejoin="round" stroke-dasharray="0 0"/><path d="M 890,340 L 881.304347826087,334.25 L 881.304347826087,345.75 Z" fill="rgb(230,176,43)" stroke="#e6b02b" stroke-width="2" stroke-linecap="round" stroke-linejoin="round"/></g><g transform="translate(762.77, 332.795)" width="74.46" height="14.41"><text text-decoration="none" x="0" fill="#1e1d1d" font-size="8pt" font-family="lt_regular"  y="17">resetPassword()</text><text text-decoration="none" x="78" fill="#4b4b4b" font-size="10pt" font-family="noto_regular"  y="17"></text></g></g><g id="DlKumyasZxf"><mask id="b2b6d" x="696" y="366" width="208" height="28" maskUnits="userSpaceOnUse"><rect x="696" y="366" width="208" height="28" fill="white" /><rect x="720.51" y="369.795" width="158.98" height="20.41" fill="black" /></mask><g mask="url(#b2b6d)"><path d="M 890,380 L 814,380 Q 804,380 803.6249999999998,380 L 710,380" fill="none" stroke="#e6b02b" stroke-width="2" stroke-linecap="round" stroke-linejoin="round" stroke-dasharray="0 0"/><path d="M 710,380 L 718.695652173913,385.75 L 718.695652173913,374.25 Z" fill="rgb(230,176,43)" stroke="#e6b02b" stroke-width="2" stroke-linecap="round" stroke-linejoin="round"/></g><g transform="translate(723.51, 372.795)" width="152.98" height="14.41"><text text-decoration="none" x="0" fill="#1e1d1d" font-size="8pt" font-family="lt_regular"  y="17">checkUserIdDatabaseAbscence()</text><text text-decoration="none" x="156" fill="#4b4b4b" font-size="10pt" font-family="noto_regular"  y="17"></text></g></g><g id="XDrh707m3cy"><g transform="translate(1090.0000000000002 410)"><rect x="0" y="0" width="20" height="80" fill="rgb(53,98,96)" stroke="#356260" stroke-width="2" stroke-linecap="round" stroke-linejoin="round" stroke-dasharray="0 0"/></g></g><g id="QZL2zuKb4eI"><mask id="c09cf" x="696" y="406" width="408" height="28" maskUnits="userSpaceOnUse"><rect x="696" y="406" width="408" height="28" fill="white" /><rect x="841.015" y="409.795" width="117.97" height="20.41" fill="black" /></mask><g mask="url(#c09cf)"><path d="M 710,420 L 1090,420" fill="none" stroke="#e6b02b" stroke-width="2" stroke-linecap="round" stroke-linejoin="round" stroke-dasharray="0 0"/><path d="M 1090,420 L 1081.304347826087,414.25 L 1081.304347826087,425.75 Z" fill="rgb(230,176,43)" stroke="#e6b02b" stroke-width="2" stroke-linecap="round" stroke-linejoin="round"/></g><g transform="translate(844.015, 412.795)" width="111.97" height="14.41"><text text-decoration="none" x="3.9849999999999994" fill="#1e1d1d" font-size="8pt" font-family="lt_regular"  y="33">placeCafeteriaOrder()</text><text text-decoration="none" x="107.985" fill="#4b4b4b" font-size="10pt" font-family="noto_regular"  y="33"></text></g></g><g id="RjegNaYlWj6"><mask id="e9db5" x="696" y="446" width="408" height="28" maskUnits="userSpaceOnUse"><rect x="696" y="446" width="408" height="28" fill="white" /><rect x="830.285" y="449.795" width="139.43" height="20.41" fill="black" /></mask><g mask="url(#e9db5)"><path d="M 710,460 L 1090,460" fill="none" stroke="#e6b02b" stroke-width="2" stroke-linecap="round" stroke-linejoin="round" stroke-dasharray="0 0"/><path d="M 1090,460 L 1081.304347826087,454.25 L 1081.304347826087,465.75 Z" fill="rgb(230,176,43)" stroke="#e6b02b" stroke-width="2" stroke-linecap="round" stroke-linejoin="round"/></g><g transform="translate(833.285, 452.795)" width="133.43" height="14.41"><text text-decoration="none" x="0" fill="#1e1d1d" font-size="8pt" font-family="lt_regular"  y="17">placeLocalRestaurantOrder()</text><text text-decoration="none" x="137" fill="#4b4b4b" font-size="10pt" font-family="noto_regular"  y="17"></text></g></g><g id="h5UwhLXzYOZ"><g transform="translate(1290 410)"><rect x="0" y="0" width="20" height="139.99999999999997" fill="rgb(53,98,96)" stroke="#356260" stroke-width="2" stroke-linecap="round" stroke-linejoin="round" stroke-dasharray="0 0"/></g></g><g id="2ZZoqwhUmuj"><mask id="82fe9" x="1096" y="406" width="208" height="28" maskUnits="userSpaceOnUse"><rect x="1096" y="406" width="208" height="28" fill="white" /><rect x="1167.96" y="409.795" width="64.08" height="20.41" fill="black" /></mask><g mask="url(#82fe9)"><path d="M 1110,420 L 1290,420" fill="none" stroke="#e6b02b" stroke-width="2" stroke-linecap="round" stroke-linejoin="round" stroke-dasharray="0 0"/><path d="M 1290,420 L 1281.304347826087,414.25 L 1281.304347826087,425.75 Z" fill="rgb(230,176,43)" stroke="#e6b02b" stroke-width="2" stroke-linecap="round" stroke-linejoin="round"/></g><g transform="translate(1170.96, 412.795)" width="58.08" height="14.41"><text text-decoration="none" x="0" fill="#1e1d1d" font-size="8pt" font-family="lt_regular"  y="17">placeOrder()</text><text text-decoration="none" x="60" fill="#4b4b4b" font-size="10pt" font-family="noto_regular"  y="17"></text></g></g><g id="VjOqDHZwZY3"><mask id="af3c6" x="696" y="506" width="608" height="28" maskUnits="userSpaceOnUse"><rect x="696" y="506" width="608" height="28" fill="white" /><rect x="931.72" y="509.79499999999996" width="136.56" height="20.41" fill="black" /></mask><g mask="url(#af3c6)"><path d="M 1290,520 L 710,520" fill="none" stroke="#e6b02b" stroke-width="2" stroke-linecap="round" stroke-linejoin="round" stroke-dasharray="0 0"/><path d="M 710,520 L 718.695652173913,525.75 L 718.695652173913,514.25 Z" fill="rgb(230,176,43)" stroke="#e6b02b" stroke-width="2" stroke-linecap="round" stroke-linejoin="round"/></g><g transform="translate(934.72, 512.795)" width="130.56" height="14.41"><text text-decoration="none" x="0" fill="#1e1d1d" font-size="8pt" font-family="lt_regular"  y="17">reviewMenuItemsSelected()</text><text text-decoration="none" x="137" fill="#4b4b4b" font-size="10pt" font-family="noto_regular"  y="17"></text></g></g><g id="14Zgvvqqlyd"><g transform="translate(1490 450)"><rect x="0" y="0" width="20" height="80" fill="rgb(53,98,96)" stroke="#356260" stroke-width="2" stroke-linecap="round" stroke-linejoin="round" stroke-dasharray="0 0"/></g></g><g id="RJOHuMq9o1s"><mask id="5fae6" x="1296" y="446" width="208" height="28" maskUnits="userSpaceOnUse"><rect x="1296" y="446" width="208" height="28" fill="white" /><rect x="1346.24" y="449.795" width="107.52" height="20.41" fill="black" /></mask><g mask="url(#5fae6)"><path d="M 1310,460 L 1490,460" fill="none" stroke="#e6b02b" stroke-width="2" stroke-linecap="round" stroke-linejoin="round" stroke-dasharray="0 0"/><path d="M 1490,460 L 1481.304347826087,454.25 L 1481.304347826087,465.75 Z" fill="rgb(230,176,43)" stroke="#e6b02b" stroke-width="2" stroke-linecap="round" stroke-linejoin="round"/></g><g transform="translate(1349.24, 452.795)" width="101.52" height="14.41"><text text-decoration="none" x="0" fill="#1e1d1d" font-size="8pt" font-family="lt_regular"  y="17">saveMealPreference()</text><text text-decoration="none" x="106" fill="#4b4b4b" font-size="10pt" font-family="noto_regular"  y="17"></text></g></g><g id="STcIMPRRloE"><mask id="5f7cb" x="1296" y="486" width="208" height="31" maskUnits="userSpaceOnUse"><rect x="1296" y="486" width="208" height="31" fill="white" /><rect x="1359.31" y="491.18575792081066" width="81.38" height="20.41" fill="black" /></mask><g mask="url(#5f7cb)"><path d="M 1490,500 L 1410,500 Q 1409,500 1400,501 Q 1391.7812742764374,502.8012260694671 1390.0000295378707,502.8055554837622 L 1310,503" fill="none" stroke="#e6b02b" stroke-width="2" stroke-linecap="round" stroke-linejoin="round" stroke-dasharray="0 0"/><path d="M 1310,503 L 1318.695652173913,508.75 L 1318.695652173913,497.25 Z" fill="rgb(230,176,43)" stroke="#e6b02b" stroke-width="2" stroke-linecap="round" stroke-linejoin="round"/></g><g transform="translate(1362.31, 494.18575792081066)" width="75.38" height="14.41"><text text-decoration="none" x="0" fill="#1e1d1d" font-size="8pt" font-family="lt_regular"  y="17">createPatronId()</text><text text-decoration="none" x="77" fill="#4b4b4b" font-size="10pt" font-family="noto_regular"  y="17"></text></g></g><g id="Z2eh6UMtyHF"><g transform="translate(1640.0000000000005 530)"><rect x="0" y="0" width="20" height="80" fill="rgb(53,98,96)" stroke="#356260" stroke-width="2" stroke-linecap="round" stroke-linejoin="round" stroke-dasharray="0 0"/></g></g><g id="VbKoCo09AN8"><mask id="73233" x="696" y="546" width="958" height="28" maskUnits="userSpaceOnUse"><rect x="696" y="546" width="958" height="28" fill="white" /><rect x="1135.92" y="549.795" width="78.16" height="20.41" fill="black" /></mask><g mask="url(#73233)"><path d="M 710,560 L 1640,560" fill="none" stroke="#e6b02b" stroke-width="2" stroke-linecap="round" stroke-linejoin="round" stroke-dasharray="0 0"/><path d="M 1640,560 L 1631.304347826087,554.25 L 1631.304347826087,565.75 Z" fill="rgb(230,176,43)" stroke="#e6b02b" stroke-width="2" stroke-linecap="round" stroke-linejoin="round"/></g><g transform="translate(1138.92, 552.795)" width="72.16" height="14.41"><text text-decoration="none" x="0" fill="#1e1d1d" font-size="8pt" font-family="lt_regular"  y="17">makePayment()</text><text text-decoration="none" x="75" fill="#4b4b4b" font-size="10pt" font-family="noto_regular"  y="17"></text></g></g><g id="WzYLePOeyet"><g transform="translate(1840 530)"><rect x="0" y="0" width="20" height="259.99999999999994" fill="rgb(53,98,96)" stroke="#356260" stroke-width="2" stroke-linecap="round" stroke-linejoin="round" stroke-dasharray="0 0"/></g></g><g id="OM4DGXJtR1O"><mask id="14034" x="1646" y="546" width="208" height="28" maskUnits="userSpaceOnUse"><rect x="1646" y="546" width="208" height="28" fill="white" /><rect x="1696.18" y="549.795" width="107.64" height="20.41" fill="black" /></mask><g mask="url(#14034)"><path d="M 1660,560 L 1840,560" fill="none" stroke="#e6b02b" stroke-width="2" stroke-linecap="round" stroke-linejoin="round" stroke-dasharray="0 0"/><path d="M 1840,560 L 1831.304347826087,554.25 L 1831.304347826087,565.75 Z" fill="rgb(230,176,43)" stroke="#e6b02b" stroke-width="2" stroke-linecap="round" stroke-linejoin="round"/></g><g transform="translate(1699.18, 552.795)" width="101.64" height="14.41"><text text-decoration="none" x="0" fill="#1e1d1d" font-size="8pt" font-family="lt_regular"  y="17">paymentInformation()</text><text text-decoration="none" x="104" fill="#4b4b4b" font-size="10pt" font-family="noto_regular"  y="17"></text></g></g><g id="utgS8NRNBR5"><mask id="eb0c0" x="696" y="746" width="1158" height="28" maskUnits="userSpaceOnUse"><rect x="696" y="746" width="1158" height="28" fill="white" /><rect x="1196.565" y="749.795" width="156.87" height="20.41" fill="black" /></mask><g mask="url(#eb0c0)"><path d="M 1840,760 L 710,760" fill="none" stroke="#e6b02b" stroke-width="2" stroke-linecap="round" stroke-linejoin="round" stroke-dasharray="0 0"/><path d="M 710,760 L 718.695652173913,765.75 L 718.695652173913,754.25 Z" fill="rgb(230,176,43)" stroke="#e6b02b" stroke-width="2" stroke-linecap="round" stroke-linejoin="round"/></g><g transform="translate(1199.565, 752.795)" width="150.87" height="14.41"><text text-decoration="none" x="0" fill="#1e1d1d" font-size="8pt" font-family="lt_regular"  y="17">displayOrderMealConfirmation()</text><text text-decoration="none" x="155" fill="#4b4b4b" font-size="10pt" font-family="noto_regular"  y="17"></text></g></g><g id="28OhEVbK7ox"><mask id="774a9" x="296" y="766" width="408" height="28" maskUnits="userSpaceOnUse"><rect x="296" y="766" width="408" height="28" fill="white" />undefined<rect x="397.03874999999994" y="769.795" width="41.61" height="20.41" fill="black" /><rect x="397.03874999999994" y="769.795" width="41.61" height="20.41" fill="black" /></mask><g mask="url(#774a9)"><path d="M 690,780 L 310,780" fill="none" stroke="#e6b02b" stroke-width="2" stroke-linecap="round" stroke-linejoin="round" stroke-dasharray="0 0"/><path d="M 310,780 L 318.69565217391306,785.75 L 318.69565217391306,774.25 Z" fill="rgb(230,176,43)" stroke="#e6b02b" stroke-width="2" stroke-linecap="round" stroke-linejoin="round"/></g>undefined<g transform="translate(400.03874999999994, 772.795)" width="35.61" height="14.41"><text text-decoration="none" x="0" fill="#1e1d1d" font-size="8pt" font-family="lt_regular"  y="17">logout()</text><text text-decoration="none" x="37" fill="#4b4b4b" font-size="10pt" font-family="noto_regular"  y="17"></text></g><g transform="translate(400.03874999999994, 772.795)" width="35.61" height="14.41"><text text-decoration="none" x="0" fill="#1e1d1d" font-size="8pt" font-family="lt_regular"  y="17">logout()</text><text text-decoration="none" x="37" fill="#4b4b4b" font-size="10pt" font-family="noto_regular"  y="17"></text></g></g></svg>